<?xml version="1.0" encoding="utf-8"?>
<!-- Generator: Adobe Illustrator 16.0.0, SVG Export Plug-In . SVG Version: 6.00 Build 0)  -->
<!DOCTYPE svg PUBLIC "-//W3C//DTD SVG 1.1//EN" "http://www.w3.org/Graphics/SVG/1.1/DTD/svg11.dtd">
<svg version="1.1" id="Layer_1" xmlns="http://www.w3.org/2000/svg" xmlns:xlink="http://www.w3.org/1999/xlink" x="0px" y="0px"
	 width="256px" height="256px" viewBox="0 0 256 256" enable-background="new 0 0 256 256" xml:space="preserve">
<path d="M61.643,248.341c-3.943,0-7.283-0.745-9.937-2.205c-2.645-1.461-4.784-3.416-6.358-5.825
	c-1.538-2.357-2.654-5.104-3.311-8.157c-0.637-2.982-0.984-6.121-1.033-9.333c-0.051-4.28,0.451-8.08,1.499-11.294
	c1.058-3.239,2.531-5.985,4.381-8.16c1.87-2.194,4.093-3.87,6.61-4.983c2.503-1.107,5.218-1.667,8.076-1.667
	c2.863,0,5.479,0.39,7.783,1.16c2.313,0.774,4.334,1.834,6.002,3.153c1.698,1.346,3.015,2.927,3.91,4.701
	c0.901,1.79,1.361,3.707,1.361,5.703c0,3.503-1.998,5.43-5.623,5.43c-1.017,0-2.187-0.149-3.478-0.447l-0.986-0.227v-1.012
	c0-1.36-0.168-2.686-0.498-3.94c-0.311-1.187-0.827-2.243-1.532-3.144c-0.7-0.895-1.589-1.593-2.713-2.136
	c-1.115-0.537-2.524-0.81-4.191-0.81c-3.29,0-5.694,1.344-7.354,4.107c-1.763,2.934-2.656,7.362-2.656,13.167
	c0,5.74,0.958,10.095,2.849,12.944c1.808,2.725,4.464,4.051,8.125,4.051c3.721,0,7.693-1.679,11.811-4.99l0.708-0.569l0.769,0.485
	c2.225,1.415,3.694,3.263,4.359,5.496l0.218,0.743l-0.555,0.537c-1.118,1.073-2.413,2.062-3.861,2.939
	c-1.411,0.865-2.931,1.618-4.51,2.249c-1.569,0.621-3.212,1.124-4.88,1.48C64.934,248.155,63.255,248.341,61.643,248.341"/>
<path d="M112.697,247.923c-1.973,0-3.405-0.531-4.256-1.579c-0.794-0.981-1.182-2.357-1.182-4.199v-17.606
	c0-2.675-0.419-3.897-0.77-4.452c-0.256-0.396-0.77-0.933-2.272-0.933c-1.383,0-2.833,0.355-4.303,1.056
	c-1.352,0.641-2.567,1.479-3.623,2.499v24.631l-1.087,0.157c-1.015,0.145-2.286,0.218-3.778,0.218c-0.685,0-1.358-0.009-2.021-0.035
	c-0.721-0.028-1.351-0.095-1.882-0.193l-1.032-0.197v-52.133l1.192-1.146h3.386c1.874,0,3.241,0.504,4.068,1.499
	c0.776,0.941,1.154,2.361,1.154,4.349v13.556c3.14-2.159,6.521-3.25,10.084-3.25c3.609,0,6.366,1.206,8.193,3.582
	c1.748,2.272,2.634,5.32,2.634,9.057v16.085c0,2.552,0.335,4.475,0.998,5.709l0.516,0.964l-0.875,0.654
	C116.332,247.347,114.599,247.923,112.697,247.923"/>
<path d="M135.335,248.341c-1.974,0-3.744-0.313-5.255-0.931c-1.515-0.608-2.815-1.447-3.868-2.491
	c-1.063-1.048-1.864-2.288-2.38-3.685c-0.506-1.35-0.762-2.795-0.762-4.289c0-4.186,1.422-7.412,4.225-9.596
	c2.708-2.111,6.354-3.184,10.843-3.184c1.222,0,2.423,0.037,3.6,0.109c0.681,0.039,1.358,0.099,2.028,0.182v-1.239
	c0-3.434-1.382-4.897-4.623-4.897c-2.427,0-6.079,0.862-10.854,2.562l-0.683,0.241l-0.557-0.462
	c-1.68-1.395-2.558-3.464-2.612-6.151l-0.018-0.842l0.77-0.344c4.885-2.19,10.063-3.3,15.393-3.3c4.049,0,7.263,1.068,9.557,3.177
	c2.321,2.139,3.501,5.391,3.501,9.669v14.214c0,2.458,0.521,4.129,1.551,4.979l0.676,0.556l-0.28,0.829
	c-0.679,2.021-1.825,3.475-3.406,4.325l-0.369,0.196l-0.419-0.058c-2.65-0.393-4.639-1.563-5.929-3.491
	C142.238,247.023,138.84,248.341,135.335,248.341 M138.713,231.703c-1.884,0-3.336,0.422-4.313,1.255
	c-0.932,0.795-1.386,1.827-1.386,3.158c0,1.351,0.315,2.35,0.961,3.06c0.618,0.679,1.461,1.006,2.581,1.006
	c2.592,0,4.955-1.111,7.209-3.399v-4.911c-0.584-0.039-1.185-0.075-1.802-0.099C140.925,231.722,139.844,231.703,138.713,231.703"/>
<path d="M171.483,247.714c-5.77,0-8.818-2.885-8.818-8.34v-20.899l-5.089,0.068l-0.204-1.041c-0.363-1.856-0.366-3.812-0.004-5.811
	l0.193-1.071l5.104,0.134v-4.796c0-1.986,0.378-3.407,1.152-4.346c0.83-0.997,2.2-1.501,4.071-1.501h3.312l1.265,1.216v9.499
	l8.505-0.2l0.282,0.925c0.272,0.904,0.409,1.937,0.409,3.072c0,1.145-0.14,2.164-0.418,3.024l-0.287,0.896l-8.491-0.134v19.438
	c0,1.495,0.59,1.779,1.677,1.779h5.834l0.312,0.822c0.438,1.152,0.658,2.338,0.658,3.53c0,1.539-0.105,2.095-0.196,2.403
	l-0.241,0.823l-0.854,0.085C176.8,247.575,174.05,247.714,171.483,247.714"/>
<path d="M193.745,247.506l-0.355-0.299c-2.284-1.935-3.396-3.729-3.396-5.476c0-4.131,3.085-8.752,9.433-14.142l7.044-5.967
	c1.695-1.419,2.964-2.872,3.772-4.326c0.775-1.396,1.166-2.764,1.166-4.062c0-1.736-0.505-3.069-1.55-4.073
	c-1.059-1.022-2.391-1.518-4.077-1.518c-1.717,0-3.154,0.505-4.394,1.54c-1.299,1.087-2.325,2.522-3.059,4.267l-0.343,0.819
	l-0.886-0.042c-1.152-0.052-2.336-0.33-3.522-0.824c-1.279-0.534-2.239-1.256-2.854-2.149l-0.375-0.541l0.227-0.619
	c0.564-1.536,1.347-2.981,2.33-4.298c0.991-1.324,2.188-2.482,3.56-3.445c1.367-0.958,2.944-1.729,4.688-2.292
	c1.746-0.563,3.69-0.85,5.778-0.85c2.064,0,4.021,0.354,5.816,1.056c1.797,0.701,3.374,1.687,4.684,2.924
	c1.316,1.24,2.357,2.702,3.092,4.351c0.742,1.66,1.119,3.454,1.119,5.329c0,1.859-0.211,3.525-0.625,4.957
	c-0.423,1.439-1.059,2.803-1.89,4.052c-0.819,1.231-1.837,2.422-3.023,3.542c-1.145,1.08-2.442,2.227-3.902,3.443l-5.538,4.572
	c-3.039,2.526-4.735,4.313-5.656,5.57c1.017-0.084,1.982-0.153,2.902-0.208c1.609-0.094,3.071-0.139,4.387-0.139h14.495v1.271
	c0,2.225-0.359,3.947-1.099,5.267c-0.863,1.536-2.589,2.31-5.133,2.31H193.745z"/>
<path fill="#D34F2E" d="M121.396,139.617c-7.553-0.86-14.989-2.879-21.875-6.115c-6.289-2.945-12.131-6.921-16.978-11.903
	c-4.48-4.617-8.082-10.125-10.181-16.221c-2.21-6.421-2.669-13.387-1.276-20.041c1.319-6.287,4.25-12.154,8.232-17.171
	c4.259-5.373,9.66-9.788,15.598-13.187c6.501-3.732,13.666-6.274,21.023-7.678c7.908-1.509,16.077-1.73,24.058-0.688
	c7.506,0.982,14.874,3.11,21.674,6.442c6.211,3.039,11.958,7.101,16.686,12.158c4.375,4.697,7.843,10.262,9.789,16.393
	c1.173,3.696,1.778,7.563,1.778,11.436c0,6.844-1.924,13.56-5.343,19.479c-1.491,2.57-5.201,7.222-5.201,7.222l16.954,38.99
	c15.485-16.158,25.053-38.041,25.053-62.188c0-49.69-40.283-89.973-89.975-89.973c-49.689,0-89.974,40.283-89.974,89.973
	c0,49.691,40.285,89.974,89.974,89.974c25.375,0,48.253-10.542,64.608-27.438l-47.435-21.251
	C139.742,140.088,130.462,140.659,121.396,139.617"/>
</svg>
